<?xml version="1.0"?>
<svg xmlns:rdf="http://www.w3.org/1999/02/22-rdf-syntax-ns#" xmlns="http://www.w3.org/2000/svg" xmlns:cc="http://creativecommons.org/ns#" xmlns:dc="http://purl.org/dc/elements/1.1/" xmlns:svg="http://www.w3.org/2000/svg" id="svg6951" viewBox="0 0 345.81 345.79" version="1.1">
  <g id="layer1" transform="translate(-122.68 -407.43)">
    <path id="path4827" d="m286.46 407.44c-2.6671-0.15103-5.1282 1.3824-7.3438 2.875-1.8969 1.278-3.641 3.0739-3.9979 5.3331-0.32121 2.0333 0.47355 4.0849 1.5117 5.8625 2.8488 4.8778 7.2254 8.6488 11.017 12.836-8.367 1.6728-16.799 3.8798-25.312 3.3125-1.1493-0.71339-2.5975-0.74749-3.9375-0.5625-3.878-0.97454-7.3196-3.2764-10.173-6.0778-2.5455-2.4993-4.6665-5.39-6.9959-8.0917-0.00001-0.00002-0.00002-0.00003-0.00003-0.00004-0.93191-1.0809-1.9027-2.1419-3.0411-3.0026-0.91796-0.69405-1.9817-1.2495-3.1282-1.348-1.2372-0.1063-2.4661 0.35222-3.5092 1.0259-1.6513 1.0665-2.9728 2.5709-4.1839 4.1193-0.00001 0.00001-0.00002 0.00003-0.00003 0.00004-1.4079 1.8-2.5115 4.0456-2.1499 6.302 0 0.00002 0 0.00004 0.00001 0.00005 0.32551 2.0311 1.7191 3.7324 3.2573 5.0981 4.2242 3.7505 9.5545 5.9774 14.455 8.7874-7.4393 4.1753-14.762 8.9047-23.031 11-1.3169-0.32957-2.7147 0.0667-3.9375 0.65625-3.9902 0.2753-7.977-0.84535-11.559-2.6247-3.1939-1.5865-6.1054-3.677-9.1566-5.5232-1.2206-0.73856-2.472-1.4462-3.8207-1.9114-1.0879-0.37521-2.2715-0.57318-3.3921-0.31135-0.00001 0.00001-0.00003 0.00001-0.00005 0.00002-1.2099 0.2827-2.2368 1.0996-3.0208 2.0635-1.241 1.5257-2.0332 3.3656-2.7069 5.2133l-0.00003 0.00009c-0.78272 2.1469-1.1369 4.6234-0.0967 6.6581 0.93679 1.8324 2.7868 3.0225 4.6716 3.8486 5.1726 2.267 10.928 2.7428 16.456 3.8995-5.7814 6.2664-11.286 13.018-18.5 17.562-1.3275 0.0924-2.5025 0.89751-3.4688 1.8125-3.7118 1.5088-7.8578 1.6842-11.822 1.1012-0.00002-0.00001-0.00004-0.00001-0.00005-0.00001-3.5357-0.52-6.958-1.6106-10.437-2.4278-1.3924-0.32706-2.8045-0.61561-4.2346-0.6437-1.1529-0.0226-2.3426 0.15212-3.3308 0.74637-1.0655 0.64067-1.7922 1.7345-2.2412 2.8938 0 0.00002-0.00001 0.00003-0.00001 0.00005-0.71085 1.8354-0.89601 3.8319-0.96576 5.7988v0.0001c-0.081 2.2857 0.34779 4.7523 1.9666 6.3679 0.00003 0.00002 0.00005 0.00005 0.00007 0.00007 1.4579 1.4549 3.5864 2.0169 5.6358 2.2214 5.623 0.56096 11.248-0.76363 16.866-1.3707-0.00001 0.00002-0.00001 0.00003-0.00002 0.00005-3.5596 7.7409-6.7085 15.855-12.156 22.406-0.00002 0.00001-0.00003 0.00001-0.00005 0.00002-1.2584 0.49799-2.1389 1.6525-2.7812 2.8437 0 0.00001-0.00001 0.00003-0.00002 0.00004-3.0636 2.5762-6.9495 4.0199-10.896 4.6872-3.5183 0.59485-7.1047 0.61298-10.661 0.90899-1.4225 0.11841-2.8519 0.27957-4.2178 0.69405-1.1012 0.33414-2.1761 0.86759-2.9299 1.7371l-0.00004 0.00004c-0.81356 0.9385-1.1646 2.2026-1.2324 3.4428v0.00005c-0.10747 1.9645 0.33351 3.9195 0.87479 5.811 0.62884 2.1975 1.7965 4.4101 3.8331 5.4476 1.8323 0.93336 4.027 0.81191 6.0363 0.37423 0.00002 0 0.00003 0 0.00005-0.00001 5.5153-1.2014 10.45-4.1975 15.599-6.5093-0.99407 8.4725-1.4818 17.176-4.6562 25.094-1.0089 0.85992-1.4803 2.196-1.7188 3.5-2.1168 3.4013-5.3691 5.9781-8.9194 7.8341-3.1673 1.6558-6.578 2.7829-9.8741 4.1644-0.00003 0.00001-0.00006 0.00002-0.00009 0.00004-1.3191 0.55288-2.6316 1.1484-3.8057 1.9653-0.00002 0.00001-0.00003 0.00002-0.00004 0.00003-0.94636 0.65842-1.8067 1.4981-2.2574 2.5591-0.4859 1.1437-0.43125 2.4553-0.11336 3.6566 0.50339 1.9023 1.527 3.6259 2.6264 5.2579 1.2776 1.8962 3.0737 3.6389 5.3322 3.9952 2.0338 0.3208 4.0858-0.47388 5.864-1.5119 0.00001-0.00001 0.00002-0.00001 0.00004-0.00002 4.8778-2.8474 8.6494-7.2222 12.835-11.014 0.00002-0.00001 0.00003-0.00002 0.00004-0.00003 1.671 8.3583 3.91 16.776 3.3438 25.281-0.00001 0.00001-0.00002 0.00003-0.00003 0.00004-0.71447 1.1264-0.76825 2.5525-0.59372 3.875-0.96122 3.8888-3.2565 7.3451-6.0586 10.208-2.499 2.5529-5.393 4.6784-8.0994 7.0103-0.00002 0.00001-0.00003 0.00002-0.00004 0.00003-1.083 0.93313-2.1465 1.9048-3.01 3.0441-0.69599 0.91838-1.254 1.9826-1.3542 3.1305-0.10803 1.2379 0.34988 2.468 1.0237 3.5121 1.0671 1.6535 2.5734 2.9765 4.1235 4.1889 1.8011 1.4088 4.0476 2.5116 6.306 2.1535h0.00005c2.033-0.32238 3.7392-1.7111 5.1096-3.2469 3.7596-4.2135 5.9947-9.5387 8.8031-14.438 4.1661 7.4227 8.8987 14.72 11 22.969-0.34807 1.3007 0.0479 2.6897 0.62498 3.9062 0.00001 0.00002 0.00001 0.00003 0.00002 0.00005 0.28892 3.9962-0.82402 7.9939-2.6027 11.584-1.586 3.2014-3.6799 6.1187-5.5313 9.1744-0.74092 1.2229-1.4513 2.4764-1.9194 3.8273-0.37747 1.0893-0.57841 2.2744-0.3183 3.3975 0.28052 1.2112 1.0966 2.24 2.0606 3.0251 1.5263 1.243 3.368 2.0361 5.2173 2.7103 2.1476 0.78295 4.6246 1.1383 6.6601 0.0982 1.8322-0.93623 3.022-2.7861 3.8476-4.6708 2.2663-5.1736 2.7407-10.93 3.8985-16.459 6.2663 5.7814 13.015 11.288 17.562 18.5 0.0904 1.3275 0.89924 2.5011 1.8125 3.4688 1.5152 3.7112 1.6958 7.8595 1.1132 11.826 0 0.00002-0.00001 0.00003-0.00001 0.00005-0.51939 3.5359-1.6117 6.958-2.432 10.436-0.32826 1.392-0.61831 2.8037-0.64801 4.2336-0.0239 1.1523 0.14929 2.3416 0.74261 3.3298 0.63971 1.0654 1.7333 1.7917 2.8921 2.2404 0.00002 0 0.00003 0.00001 0.00005 0.00002 1.836 0.71086 3.8331 0.89574 5.8007 0.96551h0.0001c2.2858 0.081 4.7515-0.3469 6.3703-1.9626l0.00003-0.00003c1.4567-1.4539 2.0244-3.5788 2.2328-5.6263 0.57172-5.6157-0.7458-11.237-1.3533-16.849 0.00003 0.00001 0.00006 0.00003 0.00009 0.00004 7.7413 3.5593 15.862 6.7 22.406 12.156 0.00001 0.00002 0.00001 0.00003 0.00002 0.00005 0.50232 1.2398 1.6352 2.1145 2.8124 2.7499 0.00003 0.00002 0.00006 0.00003 0.00009 0.00005 2.5772 3.0648 4.0202 6.9528 4.6872 10.901 0.59499 3.5219 0.61304 7.1119 0.90899 10.671 0.11843 1.4244 0.2796 2.8557 0.69405 4.2236 0.33409 1.1027 0.86726 2.1793 1.7371 2.9349 0.00002 0.00002 0.00005 0.00004 0.00008 0.00006 0.938 0.8148 2.2022 1.1674 3.4428 1.236 1.9644 0.10859 3.9195-0.33217 5.811-0.87344 2.1971-0.62873 4.409-1.7967 5.446-3.8332 0.93323-1.8327 0.81189-4.0275 0.37442-6.0371-0.00001-0.00003-0.00002-0.00006-0.00003-0.0001-1.2006-5.515-4.1956-10.45-6.5079-15.598 8.4706 0.99438 17.176 1.4538 25.094 4.625 0.85427 1.0205 2.1913 1.5078 3.5 1.75 0.00002 0 0.00003 0.00001 0.00005 0.00001 3.3991 2.1171 5.975 5.3673 7.8313 8.9155 0.00001 0.00001 0.00002 0.00003 0.00003 0.00004 1.6552 3.1638 2.7827 6.5708 4.1652 9.8629 0.55315 1.3173 1.1491 2.6278 1.9663 3.7997 0.6589 0.94486 1.4992 1.8032 2.56 2.2521 1.1444 0.48434 2.4559 0.42826 3.6571 0.10973 1.9021-0.50438 3.6256-1.528 5.2576-2.6275 1.8966-1.2778 3.6401-3.0738 3.9967-5.3327 0.32104-2.0335-0.47369-4.0853-1.5118-5.8631-2.8482-4.8778-7.224-8.649-11.016-12.835-0.00003-0.00002-0.00005-0.00005-0.00007-0.00007 8.3566-1.6707 16.777-3.87 25.281-3.3125 0.00003 0.00002 0.00006 0.00004 0.00008 0.00005 1.1547 0.72535 2.618 0.7495 3.9687 0.56245 3.8768 0.97422 7.3172 3.2758 10.168 6.0778 2.5425 2.499 4.6598 5.3896 6.9852 8.0917 0.00002 0.00003 0.00004 0.00006 0.00006 0.00008 0.93 1.0807 1.8988 2.1417 3.0353 3.0026 0.91615 0.69395 1.9782 1.2495 3.1232 1.348 1.2361 0.10636 2.4637-0.35251 3.5056-1.0259 1.6507-1.0668 2.9717-2.5711 4.1825-4.1192 0.00002-0.00003 0.00004-0.00005 0.00006-0.00008 1.408-1.8002 2.5129-4.0448 2.1548-6.3019-0.00001-0.00003-0.00001-0.00006-0.00002-0.0001-0.32211-2.0298-1.7113-3.7319-3.2466-5.0981-4.2168-3.7523-9.5427-5.9796-14.439-8.7874 7.4393-4.1753 14.762-8.9047 23.031-11 1.3074 0.32495 2.6927-0.0712 3.9062-0.65621 0.00003-0.00001 0.00006-0.00003 0.00009-0.00004 3.9917-0.28199 7.9826 0.83417 11.567 2.6137 3.1944 1.586 6.1051 3.6781 9.1548 5.5273 1.2198 0.73964 2.4703 1.4487 3.8183 1.9154 1.0869 0.37631 2.2696 0.57576 3.3898 0.31481 1.2095-0.28175 2.2359-1.0986 3.0194-2.0621 1.2412-1.5264 2.0334-3.367 2.7073-5.2153l0.00003-0.00009c0.78264-2.1467 1.1389-4.6222 0.1016-6.6581-0.93303-1.8312-2.7791-3.0223-4.6609-3.8486-5.1665-2.2685-10.918-2.7438-16.441-3.8995 5.7815-6.2665 11.283-13.022 18.5-17.562 1.3275-0.0924 2.5025-0.8975 3.4688-1.8125 3.7103-1.5082 7.8546-1.6844 11.817-1.1012 0.00003 0.00001 0.00007 0.00001 0.0001 0.00002 3.5321 0.51988 6.9508 1.6105 10.426 2.4278 1.3905 0.32704 2.8007 0.61562 4.2288 0.64371 1.1513 0.0226 2.3393-0.15227 3.3258-0.74637 1.0644-0.64101 1.7895-1.735 2.2376-2.8938 0.00001-0.00003 0.00002-0.00007 0.00004-0.0001 0.70983-1.8357 0.89466-3.832 0.96441-5.7988v-0.0001c0.081-2.2844-0.34608-4.7495-1.9626-6.3656-1.4545-1.4542-3.5797-2.0171-5.6262-2.222-5.617-0.56237-11.236 0.76159-16.849 1.369 0.00001-0.00003 0.00003-0.00006 0.00004-0.00009 3.5596-7.7409 6.7071-15.856 12.156-22.406 0.00003-0.00001 0.00006-0.00002 0.00009-0.00004 1.2443-0.49244 2.1115-1.6362 2.7499-2.8124 0.00002-0.00003 0.00003-0.00006 0.00005-0.00009 3.0622-2.5844 6.9505-4.0354 10.901-4.7067 3.5219-0.59847 7.1124-0.61825 10.672-0.91498 1.4246-0.11874 2.856-0.28007 4.224-0.69466 1.1028-0.3342 2.1796-0.86752 2.9352-1.7376 0.81492-0.93843 1.1673-2.2032 1.2357-3.4442 0.00001-0.00004 0.00001-0.00007 0.00001-0.0001 0.10832-1.9656-0.33282-3.9217-0.8744-5.8143-0.62884-2.1975-1.7965-4.4101-3.8331-5.4476-1.8323-0.93336-4.027-0.81191-6.0362-0.37424-0.00004 0-0.00007 0.00001-0.0001 0.00002-5.5153 1.2014-10.45 4.1975-15.599 6.5093 0.99263-8.4603 1.4642-17.152 4.625-25.062 1.041-0.86775 1.5421-2.2285 1.7812-3.5625 2.1229-3.3911 5.3749-5.9576 8.9215-7.8089 0.00003-0.00001 0.00006-0.00003 0.00009-0.00005 3.1639-1.6514 6.5696-2.7775 9.8599-4.1598 1.3165-0.55309 2.6262-1.1492 3.7972-1.9666 0.94425-0.65917 1.8017-1.4997 2.2501-2.5604 0.48377-1.1443 0.42767-2.4554 0.10923-3.6563-0.50403-1.9008-1.5268-3.6233-2.6255-5.2542-1.2773-1.8958-3.074-3.6383-5.3325-3.9912-2.035-0.31798-4.0862 0.48151-5.8635 1.5225-4.8766 2.8566-8.6467 7.2367-12.835 11.031-0.00002 0.00003-0.00005 0.00005-0.00007 0.00007-1.6725-8.3685-3.9106-16.797-3.3438-25.312 0.00002-0.00003 0.00004-0.00006 0.00005-0.00008 0.71937-1.1359 0.77347-2.5737 0.5937-3.9062 0.96713-3.8828 3.263-7.3323 6.0626-10.191 2.4958-2.5487 5.3848-4.672 8.0851-7.0028 0.00003-0.00002 0.00005-0.00004 0.00008-0.00006 1.0802-0.93241 2.1407-1.9036 3.0008-3.0422 0.69363-0.91832 1.2485-1.9824 1.3463-3.1291 0.10561-1.2379-0.35389-2.467-1.0283-3.5105-1.0678-1.6522-2.5733-2.9745-4.1228-4.1864-0.00003-0.00002-0.00005-0.00004-0.00008-0.00006-1.7999-1.4078-4.0443-2.5119-6.3011-2.1535-0.00003 0-0.00006 0.00001-0.0001 0.00001-2.03 0.32241-3.7323 1.7116-5.0988 3.2469-3.7525 4.2161-5.9805 9.5412-8.7875 14.438-4.1754-7.4394-8.9113-14.76-11-23.031 0.32269-1.297-0.0788-2.6696-0.65621-3.8749-0.00001-0.00003-0.00003-0.00006-0.00004-0.00009-0.28191-3.9936 0.83729-7.986 2.619-11.571 1.5893-3.1982 3.685-6.1124 5.5379-9.1656 0.74143-1.2217 1.4523-2.4741 1.921-3.8241 0.37784-1.0883 0.57928-2.2725 0.3197-3.3949 0-0.00003-0.00001-0.00006-0.00002-0.00009-0.27995-1.2103-1.0954-2.2384-2.0586-3.0229-1.5252-1.2423-3.3658-2.0348-5.2139-2.7086-0.00003-0.00001-0.00006-0.00002-0.00009-0.00003-2.1491-0.78352-4.6276-1.1378-6.6653-0.0985-1.8348 0.93584-3.0289 2.7852-3.8582 4.6706-2.2746 5.1716-2.7557 10.929-3.9139 16.459-6.2664-5.7814-13.016-11.288-17.562-18.5-0.0914-1.3374-0.88847-2.5289-1.8125-3.5-1.5071-3.7104-1.6824-7.8543-1.0991-11.816 0.00001-0.00004 0.00001-0.00007 0.00002-0.0001 0.51999-3.5321 1.6103-6.9508 2.4271-10.426 0.32682-1.3906 0.61514-2.8008 0.64295-4.229 0.0224-1.1514-0.15276-2.3395-0.74702-3.326-0.6412-1.0644-1.7352-1.7896-2.8942-2.2378-1.8356-0.70983-3.8317-0.89471-5.7985-0.96445h-0.0001c-2.2843-0.081-4.7494 0.34614-6.3654 1.9626-0.00003 0.00002-0.00005 0.00005-0.00007 0.00007-1.4542 1.4546-2.0172 3.5798-2.2221 5.6263-0.56245 5.6169 0.7614 11.236 1.3689 16.849-0.00003-0.00001-0.00006-0.00003-0.00009-0.00004-7.7366-3.5571-15.859-6.6804-22.406-12.125-0.00001-0.00003-0.00002-0.00006-0.00004-0.00009-0.4957-1.2508-1.6297-2.1396-2.8124-2.7811-0.00003-0.00002-0.00006-0.00003-0.00009-0.00005-2.5796-3.0638-4.0248-6.952-4.6923-10.901-0.59526-3.522-0.61265-7.112-0.90734-10.672-0.11792-1.4244-0.27845-2.8557-0.69227-4.2238-0.33351-1.1026-0.86606-2.1793-1.7355-2.935-0.00002-0.00002-0.00005-0.00004-0.00007-0.00006-0.93763-0.81489-2.2017-1.1674-3.4421-1.2359-1.9647-0.10851-3.92 0.33244-5.8117 0.87378-2.1974 0.6288-4.4097 1.7966-5.447 3.8332-0.93332 1.8324-0.81191 4.0272-0.37432 6.0365 0.00001 0.00003 0.00002 0.00007 0.00003 0.0001 1.2011 5.5152 4.1968 10.45 6.5088 15.599-8.4706-0.99438-17.176-1.4538-25.094-4.625-0.86046-1.0279-2.2126-1.509-3.5312-1.75-2.7736-1.7275-5.0289-4.2101-6.7403-6.9937-0.00002-0.00003-0.00004-0.00006-0.00005-0.00008-1.5839-2.5763-2.7407-5.3888-3.8339-8.2086-0.91138-2.3508-1.7245-4.7672-3.0624-6.9043-0.51503-0.8227-1.1268-1.6012-1.9091-2.1758-0.72901-0.53553-1.6137-0.85395-2.5168-0.90509zm7.7812 44.094c-0.28068 0.59155-0.61598 1.1572-1 1.6875-2.776 3.8336-6.6333 6.7515-10.643 9.2662-3.8548 2.4175-7.9364 4.4553-11.809 6.8435-1.6181 0.99777-3.2064 2.0602-4.6178 3.3338-1.1659 1.052-2.221 2.2697-2.8403 3.7127-0.00002 0.00004-0.00004 0.00008-0.00005 0.00013-0.59312 1.3821-0.70084 2.9519-0.37306 4.4197 0.44823 2.0073 1.5445 3.8138 2.7838 5.4552 1.162 1.5392 2.5099 3.0542 4.302 3.7668 0.00005 0.00001 0.00009 0.00003 0.00013 0.00005 0.62288 0.24766 1.2988 0.3709 1.9674 0.32216 0.00005-0.00001 0.00009-0.00001 0.00014-0.00001 0.65537-0.0478 1.2931-0.2567 1.8746-0.56269 0.00004-0.00003 0.00008-0.00005 0.00012-0.00007 1.4457-0.76078 2.5677-2.0167 3.5625-3.3126 1.3115-1.7085 2.4108-3.5695 3.4627-5.4491 2.5117-4.4879 4.7239-9.1418 7.3466-13.566 0.00002-0.00002 0.00003-0.00004 0.00004-0.00006 1.2847-2.167 2.6606-4.2862 4.244-6.2457 0.00002-0.00002 0.00003-0.00004 0.00005-0.00005 1.4137-1.7495 2.9991-3.384 4.8647-4.6405 2.2752-1.5324 5.0076-2.2751 7.7383-2.5362 3.0817-0.29467 6.1914-0.0455 9.261 0.35605 6.5976 0.86308 13.085 2.5442 19.719 3.0551l-0.00005 0.00005c-0.44182 0.46685-0.91803 0.90257-1.4374 1.2812-3.8256 2.7887-8.3965 4.3727-12.988 5.527-0.00003 0-0.00005 0.00001-0.00007 0.00001-4.4147 1.11-8.928 1.7892-13.351 2.8664-0.00002 0.00001-0.00004 0.00001-0.00007 0.00002-1.8482 0.45013-3.6879 0.97109-5.4244 1.7474-1.4347 0.64138-2.8152 1.4746-3.8508 2.6566-0.99171 1.132-1.58 2.5924-1.7222 4.0906-0.19441 2.0478 0.28969 4.1051 0.96116 6.0494 0.62954 1.8229 1.4432 3.6803 2.9275 4.9116l0.00005 0.00005c0.51583 0.4279 1.1206 0.75386 1.7714 0.91395 0.63816 0.15697 1.3093 0.15521 1.957 0.0437 1.6101-0.27719 3.0651-1.1253 4.4116-2.0507 0.00002-0.00002 0.00004-0.00003 0.00006-0.00004 1.7752-1.2201 3.3957-2.6507 4.9768-4.1136 3.7754-3.493 7.3174-7.2363 11.179-10.634 1.8914-1.6643 3.8549-3.2549 5.9663-4.6294 0.00002-0.00001 0.00003-0.00002 0.00005-0.00004 1.885-1.2271 3.8979-2.2918 6.0605-2.9103 2.6378-0.75447 5.4662-0.61806 8.1448-0.0244 3.0219 0.66976 5.903 1.865 8.6988 3.193 6.0093 2.8544 11.662 6.4531 17.813 8.9876-0.57068 0.30958-1.1641 0.57965-1.7812 0.78125-4.5003 1.4701-9.3374 1.5632-14.061 1.2412-0.00003 0-0.00005-0.00001-0.00007-0.00001-4.5423-0.30968-9.045-1.0597-13.585-1.4036-1.8971-0.1437-3.808-0.21748-5.6999-0.0165-1.5628 0.16599-3.1334 0.53107-4.484 1.3348-1.2931 0.76948-2.3042 1.9762-2.9025 3.3569-0.8179 1.8872-0.99322 3.9933-0.95544 6.0498v0.00007c0.0354 1.9283 0.23572 3.9464 1.2676 5.5757 0.00002 0.00004 0.00005 0.00007 0.00007 0.00011 0.35876 0.56643 0.83367 1.0632 1.4036 1.4165 0.55901 0.34651 1.1984 0.55216 1.8494 0.64621 1.6184 0.23382 3.2656-0.12321 4.8336-0.58733 2.067-0.61184 4.0519-1.4718 6.0093-2.3746 4.6731-2.1554 9.2015-4.6212 13.927-6.6596 2.3142-0.99835 4.674-1.9044 7.1078-2.5593 2.1724-0.58455 4.4161-0.97521 6.6644-0.8952 2.741 0.0976 5.3878 1.102 7.7503 2.4952l0.00006 0.00003c2.6658 1.5719 5.0348 3.6002 7.2817 5.7282 4.8298 4.5743 9.09 9.7458 14.155 14.058-0.62868 0.11636-1.2668 0.18649-1.9062 0.1875h-0.00007c-4.7342 0.007-9.3631-1.3991-13.755-3.1657-4.2238-1.6988-8.2738-3.8044-12.485-5.5353-1.7595-0.72329-3.5538-1.3844-5.4149-1.7784-0.00002-0.00001-0.00004-0.00001-0.00007-0.00002-1.5373-0.32542-3.1435-0.46399-4.6762-0.11734-0.00002 0-0.00004 0.00001-0.00007 0.00001-1.4674 0.3319-2.8016 1.1669-3.7972 2.2948-1.361 1.542-2.1784 3.4908-2.778 5.4582-0.56226 1.8451-0.99559 3.8263-0.51924 5.6954 0.00001 0.00002 0.00001 0.00004 0.00002 0.00007 0.16559 0.64974 0.46296 1.2694 0.89513 1.782 0.00001 0.00001 0.00003 0.00003 0.00004 0.00005 0.42362 0.5025 0.96723 0.8962 1.5565 1.1873 1.4643 0.72345 3.1392 0.89422 4.7719 0.93837 2.1522 0.0582 4.3032-0.14503 6.4414-0.39762h0.00007c5.1057-0.60314 10.17-1.5465 15.289-2.023 0.00002 0 0.00004-0.00001 0.00007-0.00001 2.5079-0.23346 5.0307-0.3651 7.5461-0.23528 2.2461 0.11592 4.5001 0.43825 6.6131 1.2089 2.5786 0.94048 4.7874 2.7145 6.6063 4.7701 2.0525 2.3196 3.6822 4.9816 5.1649 7.7009 3.1862 5.8436 5.6461 12.08 9.135 17.748-0.64752-0.0834-1.285-0.23674-1.9062-0.4375-4.5045-1.4557-8.4728-4.222-12.106-7.2574-3.4927-2.9183-6.6951-6.1694-10.166-9.1133-0.00003-0.00003-0.00007-0.00006-0.0001-0.00009-1.4505-1.2302-2.9534-2.4118-4.6022-3.3599-0.00002-0.00001-0.00004-0.00002-0.00006-0.00004-1.3622-0.78329-2.8477-1.4099-4.4126-1.5525-1.4988-0.13657-3.026 0.24628-4.3217 1.012-1.7709 1.0466-3.1508 2.6476-4.3291 4.3337-1.1047 1.5808-2.129 3.3311-2.252 5.2557v0.00007c-0.0428 0.66903 0.0494 1.35 0.30275 1.9707 0.00001 0.00002 0.00002 0.00004 0.00003 0.00007 0.24851 0.60875 0.64486 1.1508 1.1161 1.6094 1.1717 1.1401 2.7141 1.8192 4.2552 2.3649 0.00005 0.00002 0.00009 0.00003 0.00014 0.00005 2.0316 0.71952 4.1427 1.1901 6.2567 1.6099 5.0472 1.0022 10.16 1.6684 15.18 2.7961 2.4589 0.55229 4.9005 1.2061 7.2543 2.1066l0.00006 0.00003c2.1011 0.80385 4.1459 1.8066 5.9177 3.1927 2.1608 1.6905 3.7124 4.0593 4.8061 6.5754 1.2341 2.8391 1.9601 5.873 2.5287 8.9161 1.222 6.5403 1.632 13.229 3.1965 19.696-0.57844-0.27507-1.1375-0.59309-1.6562-0.96875-3.8354-2.7773-6.7544-6.6368-9.2711-10.648-2.4208-3.8584-4.4623-7.9437-6.8542-11.82-0.99967-1.6201-2.064-3.2103-3.3395-4.6235-0.00002-0.00002-0.00003-0.00004-0.00005-0.00006-1.0536-1.1675-2.2728-2.2243-3.7177-2.8453-1.383-0.5944-2.9541-0.70382-4.4234-0.37665-0.00002 0-0.00005 0.00001-0.00007 0.00001-2.0078 0.44708-3.8149 1.543-5.4565 2.7824-1.5392 1.1621-3.0542 2.51-3.7668 4.3021-0.24766 0.62288-0.3709 1.2988-0.32216 1.9674 0.00001 0.00002 0.00001 0.00005 0.00001 0.00007 0.0478 0.65542 0.2567 1.2932 0.56273 1.8748l0.00003 0.00006c0.76078 1.4457 2.0167 2.5677 3.3126 3.5625 0.00002 0.00001 0.00004 0.00003 0.00006 0.00004 1.7085 1.3115 3.5695 2.4108 5.449 3.4627 4.4879 2.5117 9.1418 4.7239 13.566 7.3466 2.1671 1.2847 4.2863 2.6607 6.2458 4.2441 1.7495 1.4137 3.384 2.9991 4.6405 4.8647 1.5322 2.2749 2.2745 5.007 2.5357 7.7373 0 0.00003 0.00001 0.00005 0.00001 0.00007 0.29485 3.0819 0.0461 6.1919-0.35515 9.2617-0.86228 6.5978-2.5427 13.086-3.0556 19.72-0.46049-0.43844-0.87541-0.92364-1.25-1.4374-0.00001-0.00002-0.00003-0.00004-0.00004-0.00006-2.7887-3.8256-4.3727-8.3964-5.527-12.988-0.00001-0.00005-0.00003-0.00009-0.00004-0.00014-1.11-4.4148-1.7892-8.928-2.8664-13.351-0.45014-1.8482-0.9711-3.6879-1.7474-5.4245-0.64138-1.4347-1.4746-2.8152-2.6566-3.8508-1.132-0.99171-2.5924-1.58-4.0906-1.7222-2.0478-0.19439-4.105 0.28969-6.0493 0.96115-0.00003 0-0.00005 0.00001-0.00007 0.00002-1.8231 0.62962-3.6807 1.4439-4.9116 2.9289-0.42803 0.51636-0.75394 1.1217-0.91399 1.773-0.00001 0.00003-0.00002 0.00005-0.00002 0.00007-0.15697 0.63881-0.15519 1.3106-0.0437 1.9589 0.27716 1.6116 1.1252 3.0684 2.0507 4.4166 1.22 1.7771 2.6506 3.3996 4.1136 4.9826 3.4927 3.7792 7.236 7.3249 10.634 11.19 1.6642 1.8928 3.2548 3.8574 4.6294 5.9698 0.00001 0.00002 0.00002 0.00004 0.00004 0.00006 1.227 1.8856 2.2917 3.8989 2.9103 6.0618 0.75455 2.638 0.616 5.467 0.0196 8.1453-0.67306 3.0223-1.8723 5.903-3.204 8.6984-2.8622 6.0082-6.4684 11.659-9.0031 17.813-0.30927-0.5662-0.54966-1.168-0.75-1.7812-1.4701-4.5004-1.5632-9.3374-1.2412-14.061v-0.00007c0.30968-4.5423 1.0597-9.045 1.4036-13.585 0.1437-1.8971 0.21748-3.808 0.0165-5.6999-0.166-1.5628-0.53107-3.1334-1.3348-4.484-0.00001-0.00002-0.00003-0.00004-0.00004-0.00006-0.76948-1.2931-1.9762-2.3041-3.3568-2.9025-1.8872-0.81791-3.9933-0.99322-6.0498-0.95544h-0.00007c-1.9286 0.0354-3.9466 0.23555-5.577 1.2663-0.00002 0.00001-0.00004 0.00003-0.00006 0.00004-0.56673 0.35829-1.0641 0.8326-1.4181 1.402-0.34701 0.55822-0.55344 1.197-0.64821 1.8474-0.2355 1.6163 0.11974 3.2621 0.58232 4.8286 0.6098 2.065 1.4678 4.048 2.3689 6.0036 2.1515 4.6696 4.6137 9.1946 6.6489 13.916 0.99707 2.3131 1.9019 4.6718 2.5558 7.1043 0.58387 2.172 0.97385 4.4153 0.89386 6.663v0.00007c-0.0977 2.7449-1.1027 5.3955-2.4957 7.7627-1.5721 2.6715-3.6004 5.047-5.7289 7.3005-0.00001 0.00002-0.00003 0.00004-0.00004 0.00005-4.5727 4.8412-9.7434 9.113-14.057 14.187-0.12298-0.64861-0.18645-1.3086-0.1875-1.9688-0.007-4.7342 1.3991-9.3631 3.1657-13.755 1.6988-4.2238 3.8044-8.2738 5.5353-12.485 0.72329-1.7595 1.3844-3.5538 1.7784-5.4149 0.32543-1.5373 0.46401-3.1436 0.11736-4.6762-0.33189-1.4674-1.1669-2.8017-2.2948-3.7972-1.542-1.361-3.4908-2.1784-5.4582-2.778-1.8447-0.56214-3.8257-0.99549-5.6941-0.51788-0.64941 0.166-1.2686 0.46397-1.7805 0.89667-0.00001 0.00001-0.00003 0.00003-0.00005 0.00004-0.50204 0.42436-0.89498 0.9687-1.1853 1.5585-0.72194 1.4664-0.89079 3.1429-0.93336 4.7769v0.00007c-0.0561 2.1543 0.14899 4.3071 0.40335 6.4471 0.60729 5.1092 1.5542 10.177 2.0337 15.3v0.00007c0.23485 2.509 0.36778 5.033 0.23884 7.5497-0.11511 2.2466-0.43679 4.5011-1.2076 6.6144-0.94096 2.5799-2.7175 4.7888-4.7754 6.6072-2.3231 2.0526-4.9887 3.6816-7.7114 5.1638-0.00004 0.00002-0.00008 0.00005-0.00012 0.00007-5.8498 3.1844-12.092 5.6424-17.763 9.1352-0.00002 0.00002-0.00004 0.00003-0.00006 0.00004 0.0833-0.64752 0.23674-1.285 0.4375-1.9062 1.456-4.5054 4.2246-8.4734 7.2622-12.105 0.00003-0.00003 0.00006-0.00007 0.00009-0.0001 2.9216-3.4932 6.1762-6.6955 9.1242-10.166 0.00002-0.00002 0.00004-0.00004 0.00005-0.00006 1.2319-1.4505 2.4154-2.9532 3.3656-4.6021 0.78485-1.362 1.4133-2.8474 1.5575-4.4127 0.13804-1.4984-0.24343-3.0259-1.0085-4.3217-1.0457-1.7711-2.6464-3.1509-4.3323-4.3291-0.00002-0.00001-0.00004-0.00003-0.00006-0.00004-1.5807-1.1047-3.331-2.1289-5.2555-2.2519-0.00005 0-0.00009-0.00001-0.00014-0.00001-0.66905-0.0428-1.3501 0.0494-1.9708 0.30275-0.60878 0.24851-1.1509 0.64486-1.6094 1.1161-1.1401 1.1717-1.8192 2.7141-2.3649 4.2552-0.71956 2.0317-1.1902 4.1428-1.61 6.2568-1.0022 5.0472-1.6684 10.16-2.7961 15.18-0.55229 2.4589-1.2061 4.9006-2.1066 7.2543-0.80385 2.1011-1.8066 4.1459-3.1927 5.9177-1.6916 2.1622-4.0629 3.7137-6.5811 4.8069-2.8426 1.234-5.88 1.9594-8.9264 2.5276-6.5457 1.2207-13.24 1.6292-19.711 3.1968 0.28068-0.59155 0.61598-1.1572 1-1.6875 2.776-3.8336 6.6333-6.7515 10.643-9.2662 3.8548-2.4175 7.9364-4.4553 11.809-6.8435 1.6181-0.99777 3.2064-2.0602 4.6178-3.3338 0.00004-0.00003 0.00007-0.00006 0.00011-0.00009 1.1658-1.052 2.2209-2.2696 2.8402-3.7126 0.00002-0.00004 0.00004-0.00008 0.00005-0.00013 0.59312-1.3821 0.70084-2.9519 0.37306-4.4197-0.44823-2.0073-1.5445-3.8138-2.7838-5.4552-0.00003-0.00004-0.00006-0.00007-0.00008-0.00011-1.1621-1.5392-2.51-3.0542-4.302-3.7667-0.00005-0.00002-0.00009-0.00003-0.00013-0.00005-0.6228-0.24761-1.2987-0.37083-1.9671-0.32212-0.00005 0.00001-0.0001 0.00001-0.00014 0.00001-0.65547 0.0478-1.2933 0.25672-1.8749 0.56277-1.4457 0.76078-2.5677 2.0167-3.5625 3.3126-1.3115 1.7085-2.4108 3.5694-3.4627 5.4489-0.00002 0.00004-0.00005 0.00008-0.00007 0.00012-2.5117 4.4879-4.7239 9.1418-7.3466 13.566-1.2847 2.1671-2.6607 4.2863-4.2441 6.2458-1.4137 1.7495-2.9991 3.384-4.8647 4.6405-2.2769 1.5336-5.0117 2.2759-7.7444 2.5367-0.00005 0-0.00009 0.00001-0.00014 0.00001-3.0849 0.29447-6.1978 0.0448-9.2705-0.3571-0.00005-0.00001-0.00009-0.00001-0.00014-0.00002-6.6026-0.86365-13.095-2.5455-19.735-3.0546-0.00005 0-0.00009-0.00001-0.00014-0.00001 0.4472-0.47252 0.94302-0.89801 1.4688-1.2812 3.8256-2.7887 8.3964-4.3727 12.988-5.527 0.00005-0.00001 0.00009-0.00002 0.00014-0.00003 4.4148-1.11 8.928-1.7892 13.351-2.8664 1.8482-0.45014 3.6879-0.9711 5.4245-1.7474 1.4347-0.64138 2.8152-1.4746 3.8508-2.6566 0.99171-1.132 1.58-2.5924 1.7222-4.0906 0.1944-2.0478-0.28969-4.1051-0.96116-6.0494-0.62954-1.8229-1.4432-3.6803-2.9275-4.9116-0.00003-0.00003-0.00007-0.00006-0.00011-0.00009-0.51582-0.42788-1.1206-0.75383-1.7714-0.91391-0.63816-0.15697-1.3093-0.15521-1.957-0.0437-1.6101 0.27719-3.0651 1.1253-4.4116 2.0507-0.00004 0.00002-0.00007 0.00005-0.00011 0.00007-1.7752 1.2201-3.3957 2.6506-4.9768 4.1135-3.7754 3.493-7.3174 7.2363-11.179 10.634-1.8914 1.6643-3.8549 3.2549-5.9663 4.6294-0.00003 0.00002-0.00007 0.00005-0.00011 0.00007-1.885 1.2271-3.8979 2.2918-6.0604 2.9103-2.6374 0.75435-5.4654 0.61766-8.1435 0.0242-3.0222-0.66964-5.9037-1.8646-8.7-3.1923-6.0098-2.8536-11.662-6.4517-17.813-8.9882 0.57068-0.30958 1.1641-0.57965 1.7812-0.78125 4.4988-1.4696 9.3342-1.5633 14.056-1.2412 0.00004 0 0.00009 0 0.00014 0.00001 4.5387 0.30963 9.0377 1.0597 13.574 1.4036 1.8952 0.14369 3.8042 0.21748 5.6941 0.0165 1.5612-0.166 3.1302-0.53118 4.479-1.3348 1.292-0.76974 2.3016-1.9766 2.899-3.3569 0.81698-1.8875 0.99188-3.9934 0.9541-6.0498v-0.00014c-0.0354-1.9281-0.23527-3.9459-1.2663-5.5756-0.35829-0.56634-0.83265-1.0632-1.4021-1.4166-0.55831-0.34645-1.1971-0.55215-1.8474-0.64621-1.6167-0.23383-3.2624 0.12325-4.8286 0.58733-2.0651 0.6119-4.0481 1.4718-6.0036 2.3746-4.6694 2.1556-9.1942 4.6214-13.916 6.6596-2.313 0.99843-4.6716 1.9045-7.1043 2.5593-0.00005 0.00001-0.00009 0.00002-0.00014 0.00004-2.1718 0.5846-4.4151 0.97514-6.6628 0.89516h-0.00014c-2.741-0.0976-5.3878-1.102-7.7503-2.4952-0.00004-0.00003-0.00008-0.00005-0.00012-0.00008-2.6657-1.5719-5.0347-3.6002-7.2816-5.7282-4.8298-4.5743-9.09-9.7458-14.155-14.058 0.62866-0.11635 1.2668-0.18648 1.9061-0.1875h0.00014c4.7342-0.008 9.3631 1.3991 13.755 3.1657 4.2238 1.6988 8.2738 3.8044 12.485 5.5353 1.7595 0.72329 3.5538 1.3844 5.4149 1.7784 0.00005 0.00001 0.0001 0.00002 0.00014 0.00003 1.5372 0.32542 3.1435 0.46397 4.6761 0.11733 1.4674-0.33189 2.8017-1.1669 3.7972-2.2948 1.361-1.542 2.1784-3.4908 2.778-5.4582 0.56226-1.8451 0.99531-3.8265 0.51792-5.6953-0.00001-0.00005-0.00003-0.00009-0.00004-0.00014-0.16602-0.64987-0.46399-1.2695-0.89667-1.782-0.00003-0.00003-0.00006-0.00007-0.00009-0.0001-0.42427-0.50254-0.96851-0.89615-1.5583-1.1872-0.00005-0.00003-0.00009-0.00005-0.00013-0.00007-1.466-0.72348-3.1426-0.89422-4.7769-0.93837-2.1542-0.0582-4.3071 0.14501-6.4472 0.39761-0.00004 0.00001-0.00009 0.00002-0.00013 0.00002-5.1092 0.60307-10.177 1.5464-15.299 2.023-2.5091 0.23344-5.0331 0.36513-7.5497 0.23529-2.2466-0.1159-4.501-0.4381-6.6144-1.2089-2.5774-0.94006-4.7849-2.714-6.6014-4.7701-2.0494-2.3197-3.6752-4.9817-5.1542-7.7009l-0.00006-0.00012c-3.179-5.8449-5.6316-12.082-9.1194-17.748 0.00005 0.00001 0.00009 0.00001 0.00014 0.00002 0.63708 0.0842 1.2634 0.23987 1.8749 0.43748 4.5045 1.4557 8.4728 4.222 12.106 7.2574 3.4927 2.9183 6.6951 6.1694 10.166 9.1133 0.00003 0.00003 0.00007 0.00006 0.0001 0.00009 1.4505 1.2302 2.9534 2.4118 4.6022 3.3599 1.3622 0.78332 2.8478 1.4099 4.4127 1.5525 1.4988 0.13657 3.026-0.24628 4.3217-1.012 1.7709-1.0466 3.1508-2.6476 4.3291-4.3337 1.1048-1.5809 2.1292-3.331 2.2533-5.2557 0.00001-0.00005 0.00001-0.00009 0.00001-0.00014 0.0431-0.6689-0.0484-1.3498-0.30121-1.9706-0.00002-0.00004-0.00004-0.00009-0.00005-0.00013-0.24785-0.60859-0.64347-1.1507-1.1141-1.6093-1.1698-1.14-2.7106-1.8191-4.2502-2.3649-0.00004-0.00002-0.00009-0.00003-0.00013-0.00005-2.0297-0.71956-4.1388-1.1902-6.251-1.6099-5.0436-1.0023-10.153-1.6685-15.17-2.7961-2.4577-0.55234-4.8981-1.2062-7.2507-2.1066-0.00005-0.00002-0.00009-0.00003-0.00013-0.00005-2.1006-0.80398-4.1449-1.8068-5.9163-3.1927-2.1608-1.6905-3.7124-4.0593-4.8061-6.5754-1.2341-2.8391-1.9601-5.873-2.5287-8.9161-1.222-6.5403-1.632-13.229-3.1965-19.696 0.57844 0.27507 1.1375 0.59309 1.6562 0.96875 3.8354 2.7773 6.7544 6.6368 9.2711 10.648 2.4208 3.8584 4.4623 7.9437 6.8542 11.82 0.99967 1.6201 2.064 3.2103 3.3395 4.6235 0.00003 0.00004 0.00006 0.00007 0.00009 0.00011 1.0536 1.1675 2.2728 2.2242 3.7176 2.8452 1.383 0.5944 2.9541 0.70382 4.4234 0.37665 2.0078-0.44706 3.815-1.543 5.4566-2.7824 1.539-1.1619 3.054-2.5098 3.7655-4.3021 0.24728-0.62295 0.36997-1.299 0.32061-1.9674 0-0.00005-0.00001-0.00009-0.00001-0.00014-0.0484-0.65556-0.25809-1.2933-0.56475-1.8748-0.76266-1.446-2.0202-2.5678-3.3176-3.5625-0.00004-0.00003-0.00007-0.00005-0.00011-0.00008-1.7105-1.3115-3.5734-2.4108-5.4547-3.4627-4.4917-2.5114-9.1491-4.7236-13.577-7.3466-2.1683-1.2846-4.2887-2.6605-6.2494-4.2441-1.75-1.4135-3.3851-2.9988-4.6418-4.8647-1.5322-2.2748-2.2744-5.0069-2.5357-7.7372 0-0.00005-0.00001-0.0001-0.00001-0.00014-0.29486-3.0819-0.0461-6.1919 0.35507-9.2617 0.86222-6.5978 2.5426-13.086 3.0556-19.72 0.4658 0.44285 0.90256 0.91803 1.2812 1.4374 0.00003 0.00003 0.00005 0.00007 0.00008 0.00011 2.7887 3.8256 4.3727 8.3964 5.527 12.988 0.00001 0.00005 0.00002 0.00009 0.00003 0.00014 1.11 4.4148 1.7892 8.928 2.8664 13.351 0.45014 1.8482 0.9711 3.6879 1.7474 5.4245 0.64138 1.4347 1.4746 2.8152 2.6566 3.8508 1.132 0.99171 2.5924 1.58 4.0906 1.7222 2.0478 0.1944 4.1051-0.2897 6.0494-0.96117 1.8231-0.62962 3.6807-1.4439 4.9116-2.9289 0.42803-0.51636 0.75394-1.1217 0.914-1.773 0.00001-0.00005 0.00002-0.00009 0.00003-0.00014 0.15695-0.63879 0.15516-1.3106 0.0437-1.9588-0.27716-1.6116-1.1252-3.0684-2.0507-4.4166-1.22-1.7771-2.6506-3.3996-4.1136-4.9826-3.4926-3.7792-7.236-7.3249-10.634-11.19-1.6642-1.8927-3.2547-3.8573-4.6293-5.9697-0.00002-0.00003-0.00005-0.00007-0.00008-0.00011-1.227-1.8856-2.2917-3.8989-2.9104-6.0619-0.75389-2.6357-0.61551-5.4623-0.0193-8.1381 0.67279-3.0195 1.8716-5.8972 3.2028-8.6897 2.8619-6.0034 6.4675-11.649 9.004-17.797 0.30273 0.55874 0.55262 1.1458 0.74996 1.7499 0.00001 0.00004 0.00003 0.00009 0.00004 0.00013 1.4701 4.5004 1.5632 9.3374 1.2412 14.061-0.30968 4.5423-1.0597 9.045-1.4036 13.585-0.1437 1.8971-0.21747 3.808-0.0165 5.6999 0.16599 1.5628 0.53106 3.1334 1.3348 4.484 0.76948 1.2931 1.9762 2.3042 3.3569 2.9025 0.00004 0.00002 0.00008 0.00004 0.00012 0.00005 1.8872 0.81785 3.9931 0.99316 6.0495 0.95539h0.00014c1.9282-0.0354 3.946-0.23525 5.5758-1.2663 0.56634-0.35829 1.0632-0.83265 1.4166-1.4021 0.34645-0.55831 0.55215-1.1971 0.64621-1.8474 0.23383-1.6167-0.12325-3.2624-0.58733-4.8286-0.6119-2.0651-1.4718-4.0481-2.3746-6.0036-2.1556-4.6694-4.6214-9.1942-6.6596-13.916l-0.00006-0.00012c-0.9984-2.3129-1.9045-4.6716-2.5593-7.1042-0.58464-2.1719-0.97519-4.4152-0.8952-6.663 0.0976-2.7422 1.1026-5.39 2.495-7.7544 1.572-2.6692 3.5999-5.0422 5.728-7.2932 0.00003-0.00004 0.00006-0.00007 0.0001-0.0001 4.5725-4.8367 9.7427-9.1037 14.058-14.171 0.11894 0.63878 0.18647 1.2878 0.1875 1.9375 0.007 4.7338-1.3969 9.3625-3.1608 13.755-1.6958 4.2234-3.7978 8.2736-5.5246 12.485-0.72152 1.7596-1.3807 3.5539-1.7726 5.4149-0.32382 1.5376-0.46049 3.1439-0.11238 4.6761 0.00001 0.00004 0.00002 0.00009 0.00003 0.00014 0.33345 1.4676 1.1697 2.8017 2.2984 3.7972 1.5427 1.3607 3.4917 2.1783 5.4595 2.778 1.8447 0.56214 3.8257 0.99549 5.6941 0.51788 0.64942-0.166 1.2686-0.46397 1.7805-0.89667 0.50207-0.42436 0.89503-0.96872 1.1854-1.5585 0.72195-1.4664 0.8908-3.1429 0.93337-4.7769 0.0561-2.1543-0.14899-4.3072-0.40335-6.4472-0.6073-5.1092-1.5542-10.177-2.0337-15.3-0.23485-2.509-0.36777-5.033-0.23883-7.5497 0.1151-2.2466 0.43678-4.5011 1.2076-6.6144 0.93977-2.5767 2.7137-4.7831 4.7689-6.5993 2.3198-2.05 4.9818-3.6768 7.701-5.1566 0.00004-0.00002 0.00008-0.00004 0.00012-0.00007 5.8442-3.1806 12.08-5.6346 17.749-9.119-0.0839 0.63488-0.20932 1.2656-0.40625 1.875-1.456 4.5054-4.2246 8.4735-7.2622 12.106-2.9216 3.4932-6.1762 6.6955-9.1242 10.166-1.232 1.4505-2.4155 2.9533-3.3656 4.6022-0.78485 1.362-1.4133 2.8474-1.5575 4.4127-0.13804 1.4984 0.24343 3.0259 1.0085 4.3217 1.0457 1.7711 2.6464 3.1508 4.3322 4.329 0.00003 0.00003 0.00007 0.00005 0.00011 0.00008 1.5808 1.1047 3.3311 2.129 5.2557 2.252 0.66905 0.0428 1.3501-0.0494 1.9708-0.30275 0.00004-0.00001 0.00009-0.00003 0.00013-0.00005 0.60873-0.24852 1.1508-0.64485 1.6093-1.1161 1.1401-1.1717 1.8192-2.7141 2.3649-4.2552 0.71955-2.0317 1.1902-4.1428 1.61-6.2568 1.0022-5.0472 1.6684-10.16 2.7961-15.18 0.00001-0.00005 0.00002-0.00009 0.00003-0.00014 0.55229-2.4589 1.2061-4.9005 2.1066-7.2542 0.00002-0.00005 0.00003-0.00009 0.00005-0.00013 0.80384-2.101 1.8065-4.1458 3.1927-5.9175 1.6916-2.1622 4.0629-3.7137 6.5811-4.8069 2.8426-1.234 5.88-1.9594 8.9264-2.5276 6.5457-1.2207 13.24-1.6292 19.711-3.1968z"/>
  </g>
  <metadata>
    <rdf:RDF>
      <cc:Work>
        <dc:format>image/svg+xml</dc:format>
        <dc:type rdf:resource="http://purl.org/dc/dcmitype/StillImage"/>
        <cc:license rdf:resource="http://creativecommons.org/licenses/publicdomain/"/>
        <dc:publisher>
          <cc:Agent rdf:about="http://openclipart.org/">
            <dc:title>Openclipart</dc:title>
          </cc:Agent>
        </dc:publisher>
        <dc:title>frame 1</dc:title>
        <dc:date>2012-04-07T13:04:33</dc:date>
        <dc:description>abstract, circle, clip art, clipart, frame, tribal, </dc:description>
        <dc:source>http://openclipart.org/detail/169395/frame-1-by-seventyeightist</dc:source>
        <dc:creator>
          <cc:Agent>
            <dc:title>seventyeightist</dc:title>
          </cc:Agent>
        </dc:creator>
        <dc:subject>
          <rdf:Bag>
            <rdf:li>abstract</rdf:li>
            <rdf:li>circle</rdf:li>
            <rdf:li>clip art</rdf:li>
            <rdf:li>clipart</rdf:li>
            <rdf:li>frame</rdf:li>
            <rdf:li>tribal</rdf:li>
          </rdf:Bag>
        </dc:subject>
      </cc:Work>
      <cc:License rdf:about="http://creativecommons.org/licenses/publicdomain/">
        <cc:permits rdf:resource="http://creativecommons.org/ns#Reproduction"/>
        <cc:permits rdf:resource="http://creativecommons.org/ns#Distribution"/>
        <cc:permits rdf:resource="http://creativecommons.org/ns#DerivativeWorks"/>
      </cc:License>
    </rdf:RDF>
  </metadata>
</svg>
